<svg width="41" height="41" viewBox="0 0 41 41" fill="none" xmlns="http://www.w3.org/2000/svg">
<path d="M31.2135 37.7009C29.6885 37.7009 27.5463 37.1494 24.3385 35.3572C20.4377 33.1697 17.4205 31.1502 13.5409 27.2806C9.80024 23.5423 7.97993 21.122 5.43227 16.4861C2.55414 11.2517 3.04477 8.50797 3.59321 7.33531C4.24633 5.93375 5.21039 5.09547 6.45649 4.26344C7.16426 3.79971 7.91326 3.4022 8.69399 3.07594C8.77211 3.04234 8.84477 3.01031 8.90961 2.9814C9.29633 2.80719 9.88227 2.5439 10.6245 2.82515C11.1198 3.01109 11.562 3.39156 12.2541 4.07515C13.6737 5.47515 15.6135 8.59312 16.3291 10.1244C16.8096 11.1564 17.1276 11.8377 17.1284 12.6017C17.1284 13.4962 16.6784 14.1861 16.1323 14.9306C16.0299 15.0705 15.9284 15.2041 15.8299 15.3337C15.2354 16.115 15.1049 16.3408 15.1909 16.7439C15.3651 17.5541 16.6643 19.9658 18.7995 22.0962C20.9346 24.2267 23.2768 25.4439 24.0901 25.6173C24.5104 25.7072 24.7409 25.5712 25.5471 24.9556C25.6627 24.8673 25.7815 24.7759 25.9057 24.6845C26.7385 24.065 27.3963 23.6267 28.2698 23.6267H28.2745C29.0346 23.6267 29.6854 23.9564 30.7635 24.5002C32.1698 25.2095 35.3815 27.1244 36.7901 28.5455C37.4752 29.2361 37.8573 29.6767 38.044 30.1712C38.3252 30.9158 38.0604 31.4994 37.8877 31.89C37.8588 31.9548 37.8268 32.0259 37.7932 32.1048C37.4644 32.8842 37.0645 33.6316 36.5987 34.3377C35.7682 35.5798 34.9268 36.5416 33.5221 37.1955C32.8008 37.5366 32.0114 37.7095 31.2135 37.7009Z" fill="white"/>
</svg>
