<svg width="23" height="27" viewBox="0 0 23 27" fill="none" xmlns="http://www.w3.org/2000/svg">
<path d="M21.093 11.1533C21.093 18.8299 11.0465 25.4098 11.0465 25.4098C11.0465 25.4098 1 18.8299 1 11.1533C1 8.5357 2.05847 6.02527 3.94256 4.17432C5.82664 2.32336 8.38201 1.28351 11.0465 1.28351C13.711 1.28351 16.2664 2.32336 18.1505 4.17432C20.0346 6.02527 21.093 8.5357 21.093 11.1533Z" stroke="black" stroke-width="2" stroke-linecap="round" stroke-linejoin="round"/>
<path d="M11.0466 14.7493C12.8961 14.7493 14.3954 13.2421 14.3954 11.3829C14.3954 9.52363 12.8961 8.01642 11.0466 8.01642C9.19708 8.01642 7.69775 9.52363 7.69775 11.3829C7.69775 13.2421 9.19708 14.7493 11.0466 14.7493Z" stroke="black" stroke-width="2" stroke-linecap="round" stroke-linejoin="round"/>
</svg>
