<svg width="49" height="56" viewBox="0 0 49 56" fill="none" xmlns="http://www.w3.org/2000/svg">
<path fill-rule="evenodd" clip-rule="evenodd" d="M24.4999 36.4887C34.3406 36.4887 42.3181 28.5112 42.3181 18.6705C42.3181 16.9766 42.0817 15.3379 41.6401 13.7856C46.1818 18.2328 49 24.4332 49 31.2918C49 44.8227 38.031 55.7918 24.5 55.7918C10.969 55.7918 0 44.8227 0 31.2918C0 24.4333 2.81812 18.2331 7.35957 13.7859C6.91806 15.3381 6.68172 16.9767 6.68172 18.6705C6.68172 28.5112 14.6592 36.4887 24.4999 36.4887ZM7.35957 13.7859C9.48313 6.31996 16.353 0.852356 24.4999 0.852356C32.6467 0.852356 39.5165 6.31982 41.6401 13.7856C37.2218 9.45908 31.1724 6.79177 24.5 6.79177C17.8275 6.79177 11.7779 9.45919 7.35957 13.7859Z" fill="#13D726"/>
</svg>
