<svg width="41" height="41" viewBox="0 0 41 41" fill="none" xmlns="http://www.w3.org/2000/svg">
<path d="M19.0833 37.7009V34.8556C12.8747 34.4978 9.10278 31.2994 9.08325 26.4509H14.7083C14.8465 28.5087 16.5723 30.0798 19.0833 30.3572V22.7009L16.9918 22.1541C12.2262 21.0462 9.67622 18.2955 9.67622 14.1791C9.67622 9.32671 13.152 6.14468 19.0833 5.66968V2.70093H21.5833V5.66968C27.6293 6.16187 30.8801 9.39937 30.9583 13.9509H25.3333C25.2739 12.0712 24.0965 10.5611 21.5833 10.3572V17.5447L23.9911 18.1134C29.0528 19.2212 31.5833 21.8416 31.5833 26.1384C31.5833 31.165 28.1661 34.4103 21.5833 34.8353V37.7009H19.0833ZM19.0833 17.0759V10.3572C16.9278 10.4759 15.3903 11.8001 15.3903 13.6798C15.3903 15.422 16.6708 16.5611 19.0833 17.0759ZM21.5833 23.1697V30.3572C24.5637 30.2369 25.9879 28.8791 25.9879 26.7814C25.9879 24.8611 24.5637 23.5681 21.5833 23.1697Z" fill="white"/>
</svg>
